# xmcd
#
# Track frame offsets:
#   150
#   13144
#   30248
#   42664
#   52372
#   74350
#   92218
#   106711
#   121786
#   136849
#   150557
#   165736
#   180551
#   195258
#   205594
#   223946
#   239404
#   249760
#   264876
#   281013
#
# Disc length: 3919 seconds
#
# Revision: 0
# Processed by: cddbd v1.5.2PL0 Copyright (c) Steve Scherf et al.
# Submitted via: GXTranscoder 2.0.1939
#
DISCID=120f4d14
DTITLE=Ivan Rebroff - Kalinka Maya
DYEAR=1900
DGENRE=Blues
TTITLE0=Schiwago-Melodie
TTITLE1=Wolgalied
TTITLE2=Kosaken-Patrouille
TTITLE3=In den Strassen von St.Petersburg
TTITLE4=Wenn ich einmal reich w‰r
TTITLE5=Im tiefen Keller
TTITLE6=Eine weiﬂe Birke
TTITLE7=Am Brunnen vor dem Tore
TTITLE8=Roter Wein
TTITLE9=Ave Maria
TTITLE10=Die Moldau
TTITLE11=Zwei Zigeuner
TTITLE12=Barcarole
TTITLE13=Ja,das Schreiben und das Lesen
TTITLE14=Ol Man River
TTITLE15=La Paloma
TTITLE16=Santa Lucia
TTITLE17=Suliko
TTITLE18=Stenka Rasin
TTITLE19=Der Floh
EXTD=
EXTT0=
EXTT1=
EXTT2=
EXTT3=
EXTT4=
EXTT5=
EXTT6=
EXTT7=
EXTT8=
EXTT9=
EXTT10=
EXTT11=
EXTT12=
EXTT13=
EXTT14=
EXTT15=
EXTT16=
EXTT17=
EXTT18=
EXTT19=
PLAYORDER=
